<svg xmlns="http://www.w3.org/2000/svg" height="128px" width="200px" version="1.0" viewBox="-59.034 -27.151 511.628 162.906"><path d="M11.523 107.747L0 59.417h5.895L12.5 91.099a180.573 180.573 0 011.837 9.89c1.106-5.165 1.758-8.143 1.955-8.934l8.265-32.638h6.931l6.22 24.462c1.56 6.066 2.686 11.77 3.378 17.11.553-3.055 1.273-6.56 2.162-10.517l6.813-31.055h5.776l-11.908 48.33H38.39l-9.153-36.824c-.77-3.077-1.225-4.967-1.363-5.67-.454 2.219-.879 4.11-1.273 5.67l-9.213 36.824zm50.624 0v-48.33h5.747v48.33zm15.937 0v-48.33h19.254c3.87 0 6.813.434 8.827 1.302 2.014.868 3.624 2.401 4.829 4.6 1.204 2.197 1.806 4.626 1.806 7.285 0 3.429-.997 6.319-2.991 8.67-1.995 2.352-5.076 3.847-9.242 4.484 1.52.813 2.675 1.615 3.465 2.407 1.679 1.714 3.269 3.857 4.77 6.428l7.553 13.154h-7.228l-5.746-10.055c-1.679-2.9-3.061-5.12-4.147-6.66-1.087-1.538-2.06-2.615-2.918-3.23-.86-.615-1.733-1.044-2.622-1.286-.651-.154-1.718-.23-3.199-.23H83.83v21.461zm5.746-27h12.353c2.626 0 4.68-.302 6.16-.907 1.482-.604 2.608-1.571 3.378-2.9a8.5 8.5 0 001.155-4.336c0-2.286-.745-4.165-2.236-5.638-1.491-1.472-3.846-2.208-7.065-2.208H83.83zm38.124 27v-48.33h31.399v5.703H127.7v14.803h24.024v5.67H127.7v16.45h26.66v5.704zm37.916-15.725l8.53-.923c.514 3.187 1.556 5.527 3.126 7.022 1.57 1.494 3.688 2.242 6.354 2.242 2.824 0 4.952-.665 6.383-1.995 1.432-1.33 2.148-2.885 2.148-4.665 0-1.143-.301-2.115-.903-2.917-.603-.803-1.654-1.5-3.155-2.094-1.027-.396-3.367-1.099-7.02-2.11-4.7-1.297-7.999-2.89-9.894-4.78-2.666-2.66-4-5.901-4-9.726 0-2.461.628-4.763 1.882-6.906s3.06-3.775 5.42-4.896c2.36-1.12 5.209-1.681 8.546-1.681 5.45 0 9.554 1.33 12.308 3.989 2.755 2.66 4.202 6.209 4.34 10.648l-8.768.429c-.375-2.484-1.18-4.27-2.414-5.357-1.235-1.088-3.086-1.632-5.554-1.632-2.548 0-4.542.582-5.984 1.747-.928.747-1.392 1.747-1.392 3 0 1.143.434 2.121 1.303 2.934 1.106 1.033 3.792 2.11 8.057 3.231 4.266 1.12 7.42 2.28 9.464 3.478a12.81 12.81 0 014.8 4.912c1.154 2.077 1.732 4.643 1.732 7.698 0 2.77-.691 5.363-2.073 7.78-1.383 2.418-3.338 4.215-5.866 5.39-2.527 1.177-5.677 1.764-9.449 1.764-5.49 0-9.706-1.412-12.649-4.236-2.942-2.824-4.7-6.94-5.272-12.346zm42.774 15.725v-48.33h8.768v19.022h17.18V59.417h8.769v48.33h-8.768V86.615h-17.181v21.132zm82.971 0h-9.538l-3.792-10.978h-17.358l-3.585 10.978h-9.3l16.913-48.33h9.272zm-16.144-19.12l-5.984-17.935-5.865 17.934zm20.854 19.12v-48.33h18.454c4.641 0 8.013.434 10.116 1.302 2.103.868 3.787 2.412 5.05 4.632 1.265 2.22 1.897 4.758 1.897 7.616 0 3.626-.958 6.62-2.874 8.983-1.915 2.363-4.779 3.852-8.59 4.467 1.896 1.231 3.46 2.583 4.695 4.055 1.234 1.473 2.898 4.088 4.991 7.847l5.303 9.428H318.88l-6.339-10.516c-2.25-3.759-3.791-6.127-4.62-7.105-.83-.978-1.709-1.648-2.637-2.01-.928-.363-2.4-.545-4.414-.545h-1.777v20.176zm8.768-27.89h6.487c4.206 0 6.833-.198 7.88-.594a4.806 4.806 0 002.458-2.044c.593-.967.889-2.175.889-3.626 0-1.626-.39-2.94-1.17-3.94-.78-1-1.881-1.632-3.303-1.895-.71-.11-2.844-.165-6.398-.165h-6.843zm35.161 27.89v-48.33h8.768v21.462l17.714-21.462h11.79L356.175 78.24l17.24 29.506h-11.346l-11.937-22.681-7.11 8.077v14.604z" style="line-height:125%" font-weight="700" font-size="96.086" font-family="Luxi Sans"/><path d="M.601 50.598h156.934s4.071-47.786 46.14-48.45c-13.571 21.238-.799 48.517-.799 48.517H393.56" fill="none" stroke="#000" stroke-width="4.297" stroke-linejoin="round"/></svg>